<?xml version="1.0" standalone="no"?><!DOCTYPE svg PUBLIC "-//W3C//DTD SVG 1.1//EN" "http://www.w3.org/Graphics/SVG/1.1/DTD/svg11.dtd"><svg t="1645793136200" class="icon" viewBox="0 0 1024 1024" version="1.1" xmlns="http://www.w3.org/2000/svg" p-id="2059" xmlns:xlink="http://www.w3.org/1999/xlink" width="48" height="48"><defs><style type="text/css"></style></defs><path d="M384 128c-81.292 0-144.966 22.458-189.254 66.746C150.458 239.034 128 302.708 128 384l0 512 320 0L448 384l-192 0c0-46.112 9.844-79.332 29.254-98.746C304.668 265.844 337.888 256 384 256" p-id="2060"></path><path d="M832 128c-81.292 0-144.966 22.458-189.254 66.746C598.458 239.034 576 302.708 576 384l0 512 320 0L896 384l-192 0c0-46.112 9.844-79.332 29.254-98.746C752.668 265.844 785.888 256 832 256" p-id="2061"></path></svg>